<?xml version="1.0" encoding="utf-8"?>
<svg viewBox="400 299.491 485.458 129.715" width="485.458" height="129.715" xmlns="http://www.w3.org/2000/svg">
  <defs>
    <clipPath id="clip3">
      <path d="M733.5 299.5 733.5 421.5 877.5 421.5 877.5 299.5ZM1.90735e-05 1.07288e-05 1280 1.07288e-05 1280 720 1.90735e-05 720Z" fill-rule="evenodd" clip-rule="evenodd"/>
    </clipPath>
    <filter id="fx0" x="-10%" y="-10%" width="120%" height="120%" filterUnits="userSpaceOnUse" primitiveUnits="userSpaceOnUse">
      <feComponentTransfer color-interpolation-filters="sRGB">
        <feFuncR type="discrete" tableValues="0 0"/>
        <feFuncG type="discrete" tableValues="0 0"/>
        <feFuncB type="discrete" tableValues="0 0"/>
        <feFuncA type="linear" slope="0.301961" intercept="0"/>
      </feComponentTransfer>
      <feGaussianBlur stdDeviation="2.22222 2.22222"/>
    </filter>
    <clipPath id="clip4">
      <rect x="-2" y="-2" width="168" height="146"/>
    </clipPath>
    <clipPath id="clip5">
      <rect x="0" y="0" width="164" height="142"/>
    </clipPath>
    <clipPath id="clip6">
      <path d="M403.5 299.5 403.5 421.5 547.5 421.5 547.5 299.5ZM1.90735e-05 1.07288e-05 1280 1.07288e-05 1280 720 1.90735e-05 720Z" fill-rule="evenodd" clip-rule="evenodd"/>
    </clipPath>
    <filter id="fx1" x="-10%" y="-10%" width="120%" height="120%" filterUnits="userSpaceOnUse" primitiveUnits="userSpaceOnUse">
      <feComponentTransfer color-interpolation-filters="sRGB">
        <feFuncR type="discrete" tableValues="0 0"/>
        <feFuncG type="discrete" tableValues="0 0"/>
        <feFuncB type="discrete" tableValues="0 0"/>
        <feFuncA type="linear" slope="0.301961" intercept="0"/>
      </feComponentTransfer>
      <feGaussianBlur stdDeviation="2.22222 2.22222"/>
    </filter>
    <clipPath id="clip7">
      <rect x="-2" y="-2" width="168" height="146"/>
    </clipPath>
    <clipPath id="clip8">
      <rect x="0" y="0" width="164" height="142"/>
    </clipPath>
  </defs>
  <rect x="403.168" width="485.761" height="135.56" fill="#FFFFFF" style="" y="314.772" transform="matrix(1, 0.000036, 0, 1, -3.168067, -21.581457)"/>
  <g clip-path="url(#clip3)" transform="matrix(1, 0.000036, 0, 1, 0, -0.023173)">
    <g clip-path="url(#clip4)" filter="url(#fx0)" transform="translate(730 295)">
      <g clip-path="url(#clip5)">
        <rect x="8.57788" y="8.78421" width="146.88" height="124.44" stroke="#000000" stroke-miterlimit="8" fill="#B1D2A2"/>
      </g>
    </g>
  </g>
  <rect x="733.5" y="299.5" width="144" height="122" stroke="#000000" stroke-width="1.33333" stroke-miterlimit="8" fill="#B1D2A2" transform="matrix(1, 0.000036, 0, 1, 0, -0.023173)"/>
  <text font-family="Arial,Arial_MSFontService,sans-serif" font-weight="400" font-size="24" transform="matrix(1, 0.000036, 0, 1, 767.995981, 340.004491)" style="white-space: pre;">Device <tspan font-size="24" x="-21.0933" y="29">Under Test </tspan><tspan font-size="24" x="-24.64" y="58">(Morpheus)</tspan></text>
  <g clip-path="url(#clip6)" transform="matrix(1, 0.000036, 0, 1, 0, -0.023173)">
    <g clip-path="url(#clip7)" filter="url(#fx1)" transform="translate(400 295)">
      <g clip-path="url(#clip8)">
        <rect x="8.57788" y="8.78421" width="146.88" height="124.44" stroke="#000000" stroke-miterlimit="8" fill="#B0CAE9"/>
      </g>
    </g>
  </g>
  <rect x="403.5" y="299.5" width="144" height="122" stroke="#000000" stroke-width="1.33333" stroke-miterlimit="8" fill="#B0CAE9" transform="matrix(1, 0.000036, 0, 1, 0, -0.023173)"/>
  <text font-family="Arial,Arial_MSFontService,sans-serif" font-weight="400" font-size="24" transform="matrix(1, 0.000036, 0, 1, 438.750021, 339.992638)" style="white-space: pre;">Packet <tspan font-size="24" x="-17.3134" y="29">Generator </tspan><tspan font-size="24" x="-4.66669" y="58">(DPDK)</tspan></text>
  <path d="M0-0.833333 174-0.833333 174 0.833333 0 0.833333ZM172.667-4 186 0 172.667 4Z" transform="matrix(1, 0.000036, 0, -1, 547.000012, 330.996526)"/>
  <path d="M6.6667-0.833333 186-0.833333 186 0.833333 6.6667 0.833333ZM8 4 0 0 8-4Z" transform="matrix(1, 0.000036, 0, -1, 547.000012, 387.996527)"/>
</svg>